<svg width="954" height="968" viewBox="0 0 954 968" fill="none" xmlns="http://www.w3.org/2000/svg">
<path d="M0 50C0 22.3858 22.3858 0 50 0H904C931.614 0 954 22.3858 954 50V918C954 945.614 931.614 968 904 968H50C22.3858 968 0 945.614 0 918V50Z" fill="#3B224C"/>
<path fill-rule="evenodd" clip-rule="evenodd" d="M195 27L746.48 345.4C761.22 353.91 770.3 369.65 770.3 386.67C770.3 416.26 770.3 463.02 770.3 492.61C770.3 501.12 768.03 509.31 763.92 516.44C763.92 516.44 326.2 263.72 218.65 201.63C204.02 193.18 195 177.56 195 160.66C195 114.73 195 27 195 27Z" fill="#706BC8"/>
<path fill-rule="evenodd" clip-rule="evenodd" d="M746.68 756.12C761.3 764.56 770.3 780.15 770.3 797.03C770.3 842.95 770.3 930.72 770.3 930.72L218.83 612.33C204.08 603.81 195 588.08 195 571.06C195 541.47 195 494.7 195 465.12C195 456.6 197.27 448.41 201.38 441.29C201.38 441.29 639.18 694.05 746.68 756.12Z" fill="#55C5E4"/>
<path fill-rule="evenodd" clip-rule="evenodd" d="M248.02 567.935C242.82 570.925 238.321 575.275 235.121 580.835C225.521 597.545 231.121 619.135 247.621 628.975L218.82 612.325C204.02 603.815 195.02 588.085 195.02 571.055V465.115C195.02 448.095 204.02 432.355 218.82 423.845L770.32 105.485V238.935C770.32 255.965 761.22 271.695 746.42 280.205L716.82 297.315L717.221 297.055L248.02 567.935Z" fill="#84DDEA"/>
<path fill-rule="evenodd" clip-rule="evenodd" d="M195.02 852.246V718.796C195.02 701.766 204.02 686.036 218.82 677.526L717.221 389.796L717.42 389.656C722.52 386.666 726.921 382.366 730.121 376.896C739.821 360.186 734.121 338.596 717.621 328.766L746.42 345.406C761.22 353.916 770.32 369.646 770.32 386.676V492.615C770.32 509.635 761.22 525.375 746.42 533.885L716.82 550.996L717.221 550.736L195.02 852.246Z" fill="#997BC8"/>
</svg>
